<svg width="26" height="26" viewBox="0 0 26 26" fill="none" xmlns="http://www.w3.org/2000/svg">
<path d="M26 13C26 19.7573 20.1797 25.2353 13 25.2353C5.82031 25.2353 0 19.7573 0 13C0 6.24264 5.82031 0.764706 13 0.764706C20.1797 0.764706 26 6.24264 26 13ZM2.37171 13C2.37171 18.5246 7.13017 23.0031 13 23.0031C18.8699 23.0031 23.6284 18.5246 23.6284 13C23.6284 7.47544 18.8699 2.9969 13 2.9969C7.13017 2.9969 2.37171 7.47544 2.37171 13Z" fill="#3628B7"/>
<path d="M13.0002 5.2139C12.3475 5.2139 11.8184 5.71189 11.8184 6.3262V13.5191C11.8184 13.5191 11.8184 13.8091 11.9681 14.0272C12.0683 14.2122 12.2246 14.3729 12.4298 14.4845L17.8896 17.4513C18.4549 17.7584 19.1777 17.5761 19.504 17.0441C19.8303 16.5121 19.6367 15.8318 19.0714 15.5247L14.182 12.8679V6.3262C14.182 5.7119 13.6529 5.2139 13.0002 5.2139Z" fill="#3628B7"/>
</svg>
