<svg width="24" height="24" viewBox="0 0 24 24" fill="none" xmlns="http://www.w3.org/2000/svg">
<path d="M7.24211 16.1615C7.32307 16.0327 7.3752 15.8879 7.39493 15.737C7.41466 15.5862 7.40153 15.4328 7.35643 15.2875C7.31133 15.1422 7.23534 15.0084 7.13366 14.8952C7.03198 14.782 6.90702 14.6921 6.76736 14.6318C5.52299 14.1147 4.48002 13.2078 3.79514 12.0473C3.11026 10.8868 2.82047 9.53543 2.96929 8.19616C3.1096 6.73273 3.7549 5.36377 4.79445 4.32422C5.83399 3.28467 7.20296 2.63937 8.66639 2.49907C9.82694 2.40579 10.9909 2.63172 12.0323 3.15241C13.0737 3.67309 13.9528 4.46871 14.5745 5.45312C14.7106 5.63944 14.8971 5.78307 15.112 5.86717C15.3269 5.95126 15.5613 5.97232 15.7878 5.92788C15.9442 5.88051 16.0875 5.79745 16.2063 5.68525C16.3251 5.57305 16.4163 5.43477 16.4726 5.28132C16.5288 5.12787 16.5487 4.96345 16.5305 4.80102C16.5124 4.6386 16.4567 4.4826 16.368 4.34535C15.5465 3.01948 14.3694 1.95074 12.9706 1.26066C11.5718 0.570589 10.0074 0.286876 8.45538 0.441786C6.59501 0.625239 4.84818 1.42113 3.48899 2.70459C2.12981 3.98804 1.23518 5.68642 0.945479 7.53323C0.655783 9.38005 0.987414 11.2708 1.88834 12.9088C2.78926 14.5467 4.20849 15.8393 5.92334 16.5835C6.1571 16.6841 6.4193 16.6967 6.66164 16.6192C6.90399 16.5416 7.11014 16.3791 7.24211 16.1615Z" fill="#3628B7"/>
<path d="M8.45526 5.40037V8.03791H5.81771C5.5379 8.03791 5.26956 8.14907 5.0717 8.34692C4.87385 8.54477 4.7627 8.81312 4.7627 9.09293C4.7627 9.37274 4.87385 9.64109 5.0717 9.83894C5.26956 10.0368 5.5379 10.1479 5.81771 10.1479H10.5653V5.40037C10.5653 5.12056 10.4541 4.85221 10.2563 4.65436C10.0584 4.45651 9.79008 4.34535 9.51027 4.34535C9.23047 4.34535 8.96212 4.45651 8.76426 4.65436C8.56641 4.85221 8.45526 5.12056 8.45526 5.40037Z" fill="#3628B7"/>
<path d="M23.8586 22.0169L15.946 8.30167C15.8514 8.14899 15.7193 8.02301 15.5624 7.93564C15.4055 7.84827 15.2288 7.80241 15.0492 7.80241C14.8696 7.80241 14.693 7.84827 14.536 7.93564C14.3791 8.02301 14.2471 8.14899 14.1524 8.30167L6.23981 22.0169C6.1479 22.176 6.09915 22.3564 6.0984 22.5402C6.09764 22.724 6.14491 22.9048 6.23552 23.0647C6.32612 23.2246 6.45693 23.358 6.61497 23.4518C6.77301 23.5456 6.95282 23.5965 7.13658 23.5994H22.9618C23.1456 23.5965 23.3254 23.5456 23.4834 23.4518C23.6415 23.358 23.7723 23.2246 23.8629 23.0647C23.9535 22.9048 24.0008 22.724 24 22.5402C23.9993 22.3564 23.9505 22.176 23.8586 22.0169ZM15.0492 21.4894C14.8405 21.4894 14.6366 21.4275 14.4631 21.3116C14.2896 21.1957 14.1543 21.0309 14.0745 20.8381C13.9946 20.6453 13.9738 20.4332 14.0145 20.2285C14.0552 20.0239 14.1556 19.8359 14.3032 19.6884C14.4507 19.5408 14.6387 19.4403 14.8434 19.3996C15.048 19.3589 15.2602 19.3798 15.4529 19.4597C15.6457 19.5395 15.8105 19.6747 15.9264 19.8482C16.0423 20.0217 16.1042 20.2257 16.1042 20.4344C16.1042 20.7142 15.9931 20.9825 15.7952 21.1804C15.5974 21.3782 15.329 21.4894 15.0492 21.4894ZM16.1042 17.2693C16.1042 17.5491 15.9931 17.8175 15.7952 18.0153C15.5974 18.2132 15.329 18.3243 15.0492 18.3243C14.7694 18.3243 14.501 18.2132 14.3032 18.0153C14.1053 17.8175 13.9942 17.5491 13.9942 17.2693V13.0492C13.9942 12.7694 14.1053 12.5011 14.3032 12.3032C14.501 12.1054 14.7694 11.9942 15.0492 11.9942C15.329 11.9942 15.5974 12.1054 15.7952 12.3032C15.9931 12.5011 16.1042 12.7694 16.1042 13.0492V17.2693Z" fill="#3628B7"/>
</svg>
