<svg width="14" height="14" viewBox="0 0 14 14" fill="none" xmlns="http://www.w3.org/2000/svg">
<path fill-rule="evenodd" clip-rule="evenodd" d="M12 0H10C8.8955 0 8 0.8955 8 2V4C8 5.1045 8.8955 6 10 6H12C13.1045 6 14 5.1045 14 4V2C14 0.8955 13.1045 0 12 0ZM12 8H10C8.8955 8 8 8.8955 8 10V12C8 13.1045 8.8955 14 10 14H12C13.1045 14 14 13.1045 14 12V10C14 8.8955 13.1045 8 12 8ZM4 8H2C0.8955 8 0 8.8955 0 10V12C0 13.1045 0.8955 14 2 14H4C5.1045 14 6 13.1045 6 12V10C6 8.8955 5.1045 8 4 8ZM4 0H2C0.8955 0 0 0.8955 0 2V4C0 5.1045 0.8955 6 2 6H4C5.1045 6 6 5.1045 6 4V2C6 0.8955 5.1045 0 4 0Z" fill="white"/>
</svg>
