<svg width="15" height="10" viewBox="0 0 15 10" fill="none" xmlns="http://www.w3.org/2000/svg">
<path fill-rule="evenodd" clip-rule="evenodd" d="M0 0.652174C0 0.291991 0.28782 0 0.642857 0H14.3571C14.7122 0 15 0.291991 15 0.652174C15 1.01236 14.7122 1.30435 14.3571 1.30435H0.642857C0.28782 1.30435 0 1.01236 0 0.652174ZM0 5C0 4.63983 0.28782 4.34783 0.642857 4.34783H10.0714C10.4265 4.34783 10.7143 4.63983 10.7143 5C10.7143 5.36017 10.4265 5.65217 10.0714 5.65217H0.642857C0.28782 5.65217 0 5.36017 0 5ZM0 9.34783C0 8.98765 0.28782 8.69565 0.642857 8.69565H4.92857C5.28361 8.69565 5.57143 8.98765 5.57143 9.34783C5.57143 9.708 5.28361 10 4.92857 10H0.642857C0.28782 10 0 9.708 0 9.34783Z" fill="#A4A4A4"/>
</svg>
