<svg width="28" height="19" viewBox="0 0 28 19" fill="none" xmlns="http://www.w3.org/2000/svg">
<path d="M26.5355 0H1.46453C0.656961 0 0 0.650552 0 1.45038V17.5492C0 18.349 0.656961 19 1.46453 19H26.5355C27.343 19 28 18.349 28 17.5492V1.45038C28 0.650552 27.343 0 26.5355 0ZM7.22805 11.005V10.7628C7.22805 10.6383 7.20727 10.5155 7.15373 10.3742C7.14345 10.3608 6.12598 9.00081 6.12598 7.7712C6.12598 6.30609 7.05502 5.2426 8.33503 5.2426C9.61505 5.2426 10.5441 6.30609 10.5441 7.7712C10.5441 9.00081 9.52667 10.3608 9.50381 10.3978C9.46274 10.5151 9.44191 10.6379 9.44191 10.7628V11.005C9.44191 11.3397 9.64031 11.6463 9.95088 11.7876L11.6088 12.4584C11.9689 12.6224 12.2259 12.9504 12.2956 13.3276L12.3738 14.325H4.29625L4.3732 13.3364C4.44396 12.9503 4.70121 12.6223 5.05777 12.46L6.72257 11.7859C7.02964 11.6463 7.22805 11.3397 7.22805 11.005ZM23.4783 12.2296V13.8305H14.5876V12.2296H23.4783ZM23.4783 8.78464V10.3856H14.5876V8.78464H23.4783ZM12.6591 6.94066V5.33977H23.4783V6.94066H12.6591Z" fill="#3628B7"/>
</svg>
