<svg width="26" height="26" viewBox="0 0 26 26" fill="none" xmlns="http://www.w3.org/2000/svg">
<path d="M25.3702 16.8121L16.8094 25.3702C16.4031 25.7736 15.8538 26 15.2812 26C14.7086 26 14.1593 25.7736 13.753 25.3702L1.50384 13.122C0.59003 12.1034 0.0584548 10.799 0 9.43192L0.0838716 2.25266C0.0944102 1.67594 0.328483 1.12585 0.736745 0.718348C1.14501 0.310845 1.69556 0.077771 2.27233 0.0682621L9.43068 0C10.7979 0.0616119 12.1018 0.594274 13.121 1.50762L25.3702 13.7559C25.7736 14.1621 26 14.7114 26 15.284C26 15.8565 25.7736 16.4058 25.3702 16.8121ZM5.83395 4.35514C5.83395 4.04963 5.74335 3.75099 5.57361 3.49696C5.40386 3.24294 5.1626 3.04496 4.88032 2.92804C4.59805 2.81113 4.28744 2.78054 3.98778 2.84014C3.68812 2.89974 3.41286 3.04686 3.19682 3.26289C2.98077 3.47892 2.83364 3.75415 2.77404 4.05379C2.71443 4.35343 2.74502 4.66401 2.86195 4.94627C2.97887 5.22852 3.17687 5.46977 3.43091 5.6395C3.68495 5.80923 3.98362 5.89983 4.28915 5.89983C4.69886 5.89983 5.09178 5.73708 5.38149 5.4474C5.6712 5.15771 5.83395 4.76482 5.83395 4.35514ZM18.6956 18.6864C18.7961 18.586 18.8758 18.4668 18.9302 18.3356C18.9846 18.2045 19.0126 18.0638 19.0126 17.9218C19.0126 17.7798 18.9846 17.6392 18.9302 17.508C18.8758 17.3768 18.7961 17.2576 18.6956 17.1573L17.9134 16.3752C18.236 15.8808 18.4672 15.3325 18.5961 14.7564C18.7336 14.2427 18.7345 13.7019 18.5986 13.1878C18.4628 12.6736 18.195 12.2038 17.8217 11.825C17.2907 11.2961 16.586 10.9774 15.8381 10.9278C15.3445 10.896 14.8491 10.9521 14.3752 11.0936H14.3713C13.9653 11.2215 13.5783 11.4032 13.2205 11.6339H13.2146C12.9061 11.8352 12.6197 12.0686 12.3603 12.3301C12.2041 12.487 12.0352 12.6305 11.8551 12.7592C11.6583 12.9 11.4422 13.0117 11.2134 13.0908H11.2095C10.9972 13.1605 10.7728 13.1857 10.5503 13.1649H10.5464C10.3185 13.1466 10.1031 13.0533 9.9339 12.8997C9.8101 12.76 9.7257 12.59 9.68936 12.4069C9.65303 12.2239 9.66607 12.0345 9.72715 11.8582C9.86368 11.3328 10.14 10.8543 10.5269 10.4734C10.6668 10.3534 10.8169 10.2457 10.9755 10.1516L11.034 10.1145C11.2327 9.993 11.4431 9.89172 11.662 9.81224C11.8648 9.73618 12.0794 9.69656 12.296 9.69522C12.5825 9.69522 12.8574 9.58138 13.06 9.37875C13.2627 9.17611 13.3765 8.90129 13.3765 8.61472C13.3765 8.32815 13.2627 8.05333 13.06 7.85069C12.8574 7.64806 12.5825 7.53422 12.296 7.53422C11.8182 7.53613 11.3426 7.62332 10.8955 7.79167C10.5349 7.92453 10.1891 8.09448 9.86369 8.29876L9.84418 8.31046L9.06788 7.53032C8.96735 7.42992 8.84802 7.3503 8.71671 7.29602C8.5854 7.24173 8.44468 7.21383 8.3026 7.21393C8.16051 7.21402 8.01983 7.24209 7.88859 7.29655C7.75735 7.351 7.63812 7.43077 7.53771 7.5313C7.4373 7.63183 7.35768 7.75115 7.30339 7.88244C7.2491 8.01374 7.2212 8.15445 7.22129 8.29653C7.22138 8.4386 7.24946 8.57927 7.30392 8.7105C7.35838 8.84173 7.43815 8.96095 7.53869 9.06135L8.29548 9.81614C7.98004 10.2946 7.75097 10.8247 7.61866 11.3823C7.47742 11.9147 7.47572 12.4745 7.61375 13.0078C7.75177 13.541 8.02485 14.0297 8.40666 14.4268C8.92492 14.9343 9.60183 15.2482 10.324 15.3161C10.8538 15.3705 11.389 15.3113 11.8942 15.1426C12.3284 14.9966 12.7386 14.7869 13.1113 14.5204C13.388 14.322 13.6476 14.1008 13.8876 13.8592C14.0393 13.7068 14.2067 13.5709 14.3869 13.4536C14.5815 13.329 14.7912 13.23 15.0111 13.159C15.2314 13.0955 15.461 13.0705 15.6898 13.0849C15.9161 13.1004 16.1293 13.1966 16.2906 13.356C16.3881 13.4516 16.6124 13.6778 16.4798 14.3078C16.3461 14.8464 16.0676 15.3381 15.6742 15.7296C15.5027 15.8849 15.3201 16.0276 15.1281 16.1567C14.9398 16.2784 14.7399 16.381 14.5312 16.4629C14.3326 16.5394 14.1187 16.5675 13.9071 16.5449C13.7654 16.5346 13.6232 16.5524 13.4884 16.5971C13.3536 16.6418 13.2289 16.7127 13.1215 16.8056C13.0141 16.8985 12.9261 17.0117 12.8624 17.1386C12.7987 17.2655 12.7607 17.4038 12.7504 17.5454C12.7402 17.687 12.7579 17.8293 12.8027 17.9641C12.8474 18.0989 12.9183 18.2235 13.0112 18.3309C13.1041 18.4383 13.2173 18.5263 13.3442 18.59C13.4711 18.6537 13.6094 18.6917 13.751 18.702C13.8525 18.7098 13.9519 18.7117 14.0475 18.7117C14.506 18.7167 14.9607 18.6277 15.3836 18.4504C15.7312 18.3108 16.0627 18.1342 16.3725 17.9238L16.392 17.9101L17.1664 18.6864C17.3692 18.8882 17.6438 19.0016 17.93 19.0016C18.2162 19.0016 18.4907 18.8882 18.6936 18.6864H18.6956Z" fill="#3628B7"/>
</svg>
