<svg width="72" height="71" viewBox="0 0 72 71" fill="none" xmlns="http://www.w3.org/2000/svg">
<path fill-rule="evenodd" clip-rule="evenodd" d="M2.83372 70.2777L2.98601 70.2805L3.1144 70.269C3.68473 70.1997 5.97201 69.7755 5.97201 67.3947C5.97201 53.0493 18.0026 41.4223 32.8461 41.4223C34.8198 41.4223 36.8085 41.4223 38.7823 41.4223C53.6227 41.4223 65.6563 53.0493 65.6563 67.3947C65.6563 67.4553 65.6563 67.513 65.6623 67.5708C65.7071 68.5087 66.1192 69.1204 66.6268 69.5216C67.1583 69.9948 67.866 70.2805 68.6423 70.2805C68.6423 70.2805 71.6283 70.1161 71.6283 67.3947C71.6283 49.8634 56.9223 35.6507 38.7823 35.6507C36.8085 35.6507 34.8198 35.6507 32.8461 35.6507C14.7061 35.6507 0 49.8634 0 67.3947C0 67.2504 0.00895771 67.1292 0.0238878 67.0282C0.00895771 67.1465 0 67.2706 0 67.3947C0 68.9386 1.25412 70.1997 2.83372 70.2777Z" fill="#3628B7"/>
<path fill-rule="evenodd" clip-rule="evenodd" d="M35.7813 0.986084C27.531 0.986084 20.8334 7.45898 20.8334 15.4325C20.8334 23.406 27.531 29.8789 35.7813 29.8789C44.0317 29.8789 50.7293 23.406 50.7293 15.4325C50.7293 7.45898 44.0317 0.986084 35.7813 0.986084ZM35.7813 6.75773C40.7351 6.75773 44.7573 10.6449 44.7573 15.4325C44.7573 20.2201 40.7351 24.1073 35.7813 24.1073C30.8275 24.1073 26.8054 20.2201 26.8054 15.4325C26.8054 10.6449 30.8275 6.75773 35.7813 6.75773Z" fill="#3628B7"/>
</svg>
